{"title":"Atlantic.Rim.2013.BRRip.XviD.Ac3.Feel-Free","uid":8698870,"size":1157663829,"categoryP":"video","categoryS":"movies","magnet":"?xt=urn:btih:2f56d7dd7f5c841fe10b5f0d5bba1153e457db8a&amp;dn=Atlantic.Rim.2013.BRRip.XviD.Ac3.Feel-Free&amp;tr=udp%3A%2F%2Ftracker.openbittorrent.com%3A80&amp;tr=udp%3A%2F%2Fopen.demonii.com%3A1337&amp;tr=udp%3A%2F%2Ftracker.coppersurfer.tk%3A6969&amp;tr=udp%3A%2F%2Fexodus.desync.com%3A6969","seeders":1,"leechers":0,"uploader":"SaM","files":5,"time":1374016586,"description":"Genre: Action | Sci-Fi\nLanguage:English\nIMDb:http://www.imdb.com/title/tt2740710/\nSource:BluRay.x264-ENCOUNTERS Thanks\nSample:Never\nEncoder:Tony\n\nFormat : AVI\nFormat/Info : Audio Video Interleave\nFile size : 1.08 GiB\nDuration : 1h 25mn\nOverall bit rate : 1 804 Kbps\n\nVideo\nID : 0\nFormat : MPEG-4 Visual\nFormat profile : Advanced Simple@L5\nFormat settings, BVOP : 1\nFormat settings, QPel : No\nFormat settings, GMC : No warppoints\nFormat settings, Matrix : Default (H.263)\nCodec ID : XVID\nCodec ID/Hint : XviD\nDuration : 1h 25mn\nBit rate : 1 411 Kbps\nWidth : 640 pixels\nHeight : 360 pixels\nDisplay aspect ratio : 16:9\nFrame rate : 23.976 fps\nColor space : YUV\nChroma subsampling : 4:2:0\nBit depth : 8 bits\nScan type : Progressive\nCompression mode : Lossy\nBits/(Pixel*Frame) : 0.255\nStream size : 862 MiB (78%)\nWriting library : XviD 1.2.1 (UTC 2008-12-04)\n\nAudio\nID : 1\nFormat : AC-3\nFormat/Info : Audio Coding 3\nMode extension : CM (complete main)\nCodec ID : 2000\nDuration : 1h 25mn\nBit rate mode : Constant\nBit rate : 384 Kbps\nChannel(s) : 6 channels\nChannel positions : Front: L C R, Side: L R, LFE\nSampling rate : 48.0 KHz\nBit depth : 16 bits\nCompression mode : Lossy\nStream size : 235 MiB (21%)\nAlignment : Aligned on interleaves\nInterleave, duration : 42 ms (1.00 video frame)\nInterleave, preload duration : 512 ms\n\n\n\nifbV1vM7.png\n\nGreets:\nCRYS,INSPiRAL,IMAGINE,LKRG,ADTRG,FXG,3Li,FLAWL3SS,CrEwSaDe,TA,iLLUSiON,EMBER,HOPE,GooN,BBnRG,NOGRP,ETRG,BHRG,iLLUMiNATi,MiSTERE.ViSiON,DTRG SAFCuk009,LU,TheFalcon007,MYSTiC,PrisM,Noir,WBZ,LAP,Rx,Kingdom,SAFCuk009+Fabreezy,HDLiTE,TWiZTED,ETRG.ELEKTRI4KA,MAGNAT,CM8\nAnd to all the other p2p grps past and present\n\n\n &lt;a href=&quot;\nhttp://lookpic.com/O/i2/1598/8DiFoedR.png&quot; rel=&quot;nofollow&quot; target=&quot;_NEW&quot;&gt;\nhttp://lookpic.com/O/i2/1598/8DiFoedR.png&lt;/a&gt; &lt;a href=&quot;\nhttp://lookpic.com/O/i2/1400/KfMbSW1o.png&quot; rel=&quot;nofollow&quot; target=&quot;_NEW&quot;&gt;\nhttp://lookpic.com/O/i2/1400/KfMbSW1o.png&lt;/a&gt; &lt;a href=&quot;\nhttp://lookpic.com/O/i2/1403/ifbV1vM7.png&quot; rel=&quot;nofollow&quot; target=&quot;_NEW&quot;&gt;\nhttp://lookpic.com/O/i2/1403/ifbV1vM7.png&lt;/a&gt;\n\n\n\nMake sure its a real Feel-Free release @\nThanks to all who promotes release Feel-Free !!!","torrent":{"xt":"urn:btih:2f56d7dd7f5c841fe10b5f0d5bba1153e457db8a","amp;dn":"Atlantic.Rim.2013.BRRip.XviD.Ac3.Feel-Free","amp;tr":["udp%3A%2F%2Ftracker.openbittorrent.com%3A80","udp%3A%2F%2Fopen.demonii.com%3A1337","udp%3A%2F%2Ftracker.coppersurfer.tk%3A6969","udp%3A%2F%2Fexodus.desync.com%3A6969"],"infoHash":"2f56d7dd7f5c841fe10b5f0d5bba1153e457db8a","infoHashBuffer":{"type":"Buffer","data":[47,86,215,221,127,92,132,31,225,11,95,13,91,186,17,83,228,87,219,138]},"announce":[],"urlList":[]}}